<svg enable-background="new 0 0 140 140" height="512" viewBox="0 0 140 140" width="512" xmlns="http://www.w3.org/2000/svg"><circle cx="70" cy="70" fill="#de594e" r="64"/><path d="m132.8113403 82.2735901-24.2765503-24.2766113c-2.2200317-2.3200684-5.2700195-3.5700684-8.3900146-3.5700684h-.0700073l-5.3800049-5.369873c-.8999634-1.079834-4.3699951-2.0500488-9.5499878-2.7800293-6.0300293-.8500977-14.3599854-1.369873-23.549984-1.369873-18.3800049 0-33.2999878 2.0898438-33.3300171 4.6899414v.0100098.0100098c.9799805 9.9199219 3.4700317 19.5 8 26.9699707-1.8699951-.1298828-4.0299683-.0300293-6.5499878.3798828 0 0 1.4699707 3.5500488 2 8.0800781.1900024 1.6601562 1.1499634 3.1999512 2.5200195 4.4301758l43.9800377 43.9799805c27.4057007-3.5141603 49.3822022-24.346924 54.5964966-51.1835939z" opacity=".1"/><path d="m109.9808578 59.8808327c-3.3676682-5.426899-10.5239716-7.103138-15.9508667-3.7343826l-1.6489487 1.023243-.6475449 4.3244514 4.0541077-2.5159874c1.8715286-1.163063 4.084816-1.5254326 6.231926-1.0220184 2.146019.5023308 3.9676437 1.8107719 5.1296234 3.6833878 2.1427612 3.4533844 1.478775 7.8951492-1.5796814 10.5619431-.4459152.3894958-1.0057449.7421036-1.7554474 1.1055603l-20.6668777 6.2076111-2.0737381 4.1140211 23.8244781-7.1666107c.0802841-.0238647.1594849-.054245.2354355-.0911331 1.0892868-.5164337 1.9236069-1.0437164 2.6266556-1.6577988 4.2952958-3.7452316 5.2294312-9.9825821 2.2208786-14.8322868z" fill="#dbd8dd"/><path d="m28.2642021 49.5955467c2.1292057 21.6130409 11.3986435 41.648983 33.3289146 41.648983 22.405365 0 31.199707-20.0359421 33.3289185-41.648983z" fill="#ededed"/><path d="m94.9226456 49.6026001c0 .7667847-1.2887115 1.4888153-3.5884628 2.1332741-5.499382 1.5219078-16.7536545 2.5661659-29.741066 2.5661659-12.9762878 0-24.2194405-1.0442581-29.7298794-2.5661659-2.2997456-.6444588-3.5996456-1.3664894-3.5996456-2.1332741 0-2.5995293 14.9316292-4.69944 33.329525-4.69944 18.4090194 0 33.3295288 2.0999107 33.3295288 4.69944z" fill="#dbd8dd"/><path d="m61.5931168 49.1583138c-12.9762878 0-24.2194405 1.0442619-29.7298794 2.5775604 5.5104389 1.5219078 16.7535915 2.5661659 29.7298794 2.5661659 12.9874115 0 24.241684-1.0442581 29.741066-2.5661659-5.4993821-1.5332985-16.7536545-2.5775604-29.741066-2.5775604z" fill="#e7a14e"/><path d="m74.8157806 94.0839844c-8.3166733 1.3624039-17.1125488 1.3503723-26.3875122-.0361023-1.4125214-.2111511-2.4489555-1.44664-2.4489555-2.874855v-.0000076c0-1.7944412 1.6111984-3.1625595 3.3797264-2.858696 8.1055756 1.3926697 16.2632751 1.3895874 24.4730072-.0092316 1.7666931-.3010178 3.3748779 1.0678635 3.3748779 2.8600159v.0566559c0 1.4067077-1.0029373 2.6348113-2.3911438 2.8622207z" fill="#dbd8dd"/><path d="m46.352623 88.6880035c-.2312317-.2727661-3.4366531-24.1589432 25.8954163-19.3367462 0 0-2.172287 5.2200317-2.940094 11.8734436-1.0149918 8.795372-16.4965516 15.0823059-22.9553223 7.4633026z" fill="#4abba4"/><path d="m45.5028419 90.4130096s5.2212067-15.770401 22.0828362-18.6250229c0 0-17.5633583 7.6087875-19.6851959 22.1473083z" fill="#41a38e"/><path d="m47.3225212 90.1195984c.1572685-.1855164 2.337368-16.4312057-17.6122322-13.1514893 0 0 1.4774342 3.550293 1.9996414 8.0754776.6903267 5.9819947 11.2197876 10.2579117 15.6125908 5.0760117z" fill="#4abba4"/><path d="m47.9004822 91.2928238s-3.5510941-10.7259216-15.019165-12.6674347c0 0 11.9196472 5.4218216 13.3627701 15.3098984h1.656395l-.4340668-1.9499664z" fill="#41a38e"/></svg>