<svg id="Capa_1" enable-background="new 0 0 512 512" height="512" viewBox="0 0 512 512" width="512" xmlns="http://www.w3.org/2000/svg"><g><g><path d="m265 134 45.772-134 25.228 9-57 127z" fill="#e3e3e3"/><g fill="#bfbfbf"><path d="m314 8-3 7 15 5 3-7z"/><path d="m316 23-9 4-38 111 3 1 47-107z"/></g></g><g><path d="m223 162s-59-5-88-42 10-102 10-102 66 23 79 49-1 95-1 95z" fill="#c9d4a1"/><path d="m156 46s1 60 55 100c0 0-46-59-55-100z" fill="#a6b867"/></g><g><path d="m135 512h176s125-85 125-183-95-135-95-135l-1-32-201 7-5 28s-99 63-99 149 100 166 100 166z" fill="#cfe3d8"/><path d="m367.818 208.666c-15.151-10.116-26.818-14.666-26.818-14.666l-.334-10.701-204.668 2.516-1.998 11.185s-3.931 2.504-10.213 7.18z" fill="#a4c9b3"/><path d="m139 169-45-36 1-13 152 6h91l2 36-103 16z" fill="#cfe3d8"/><g><path d="m458 278-22 2-49-86 7-11z" fill="#95625d"/><path d="m336 173 53-13 88 120.208-19 11.792-72-113-50 10z" fill="#ae8784"/><path d="m357.958 167.614-21.958 5.386v16l30.263-6.053z" fill="#95625d"/></g><path d="m162 493 136-5s113-70 113-149-85-124-85-124l-181 8s-87 50-87 134c0 59 104 136 104 136z" fill="#b8c683"/><path d="m236 480-94.529-3.567c12.078 10.307 20.529 16.567 20.529 16.567l136-5s9.86-6.109 23.752-16.75z" fill="#a6b867"/><g><path d="m126 197 223-3-1-32-112 10-105-3z" fill="#ae8784"/><g fill="#95625d"><path d="m143 176-3 15h10l1-15z"/><path d="m162 177-1 14h12l-2-13z"/><path d="m183 177-2 13 9-1-1-12z"/><path d="m200 177-2 12h9l-2-12z"/><path d="m218 177-3 12h7l1-12z"/><path d="m235 178-2 11 10-1-3-11z"/><path d="m253 177-1 12h10l-3-13z"/><path d="m273 175-1 13h9l-2-13z"/><path d="m292 174-2 13 11-1-1-12z"/><path d="m311 174-1 12 9-1-2-11z"/><path d="m328 173-1 12 8-1-2-11z"/></g></g></g><g fill="#dae1bf"><path d="m166 380-12 40 52 2-1-41z"/><path d="m267 419 19 35 33-26-26-25z"/><path d="m270 314-19 42 45 9 9-43z"/></g></g></svg>