<svg id="Capa_1" enable-background="new 0 0 512 512" height="512" viewBox="0 0 512 512" width="512" xmlns="http://www.w3.org/2000/svg"><g><g><g><g><g><path d="m394 284 118-6-6 85-156 57 17-40 114-36 9-44-99 18z" fill="#ebcd99"/><g fill="#e3b46b"><path d="m439.276 357.176-72.276 22.824-17 40 76.634-28.001c4.602-11.191 8.828-23.037 12.642-34.823z"/><path d="m391 318 62.64-11.389c2.527-10.101 4.571-19 6.098-25.954l-65.738 3.343z"/></g></g><g><path d="m139 483h164s136-102.687 136-229l-439 20c0 147.366 139 209 139 209z" fill="#faf7cf"/><g fill="#ebcd99"><path d="m30.602 385.068c1.26 2.093 2.542 4.154 3.849 6.176l349.881 7.464c2.579-3.508 5.13-7.104 7.64-10.78z"/><path d="m373.113 413.26-317.056 6.396c3.846 4.352 7.748 8.459 11.658 12.338l300.035-12.211c1.786-2.127 3.575-4.308 5.363-6.523z"/><path d="m5.199 321.857c.399 1.787.815 3.559 1.255 5.313l416.611 3.654c1.692-4.177 3.278-8.408 4.742-12.691z"/><path d="m14.16 351.511c1.576 4.09 3.249 8.086 5.027 11.971l395.436-13.94c1.038-2.088 2.061-4.188 3.05-6.31z"/><path d="m1.433 299.403c.334 2.945.723 5.853 1.167 8.721l434.801-30.247c.269-2.034.51-4.075.712-6.124z"/></g></g></g><path d="m98.234 458.138c22.911 16.943 40.766 24.862 40.766 24.862h164s17.93-13.544 40.765-36.83c-75.878 11.213-197.678 12.094-245.531 11.968z" fill="#e3b46b"/></g><path d="m332 367-20-24h-13l-10 129 28.521-1.019c6.677-5.831 15.222-13.669 24.673-23.217z" fill="#e3b46b"/><g><path d="m201 475 24-106 24-35h50l23 33 9 102z" fill="#fdfcef"/><path d="m244.805 340.118 9.195 15.882 36 1 13.376-16.721-4.376-6.279h-50z" fill="#ebcd99"/><path d="m244 377-17 78 85-4-8-79z" fill="#c9d4a1"/><path d="m249 334 8 17 31 1 11-18z" fill="#fdfcef"/><g><path d="m262 446s28-11 33-27-11-35-11-35-34 14-35 24 13 38 13 38z" fill="#a6b867"/><path d="m264 438s-3-22 17-45c0 0-16 26-17 45z" fill="#c9d4a1"/></g></g><path d="m330.014 457.826c-44.713 3.639-102.762 3.525-125.874 3.305l-3.14 13.869 130-6z" fill="#e3b46b"/><g><path d="m33 475 398-15 2 12c-62 0-114 40-114 40h-189s-39-24-97-24z" fill="#ebcd99"/><path d="m33 475v13c28.164 0 51.847 5.659 68.761 11.481l122.239 1.519 144.091-15.719c18.537-7.319 40.976-13.281 64.909-13.281l-2-12z" fill="#e3b46b"/><path d="m33 488v-13l398-15 2 12-207 17z" fill="#faf7cf"/></g></g><g fill="#c9d4a1"><path d="m235 253s71-83.286 71-121-63-62.857-63-132c0 0-43 57.286-43 106s35 41.714 35 147z"/><path d="m172 252s26-32.5 26-46-22-30.25-22-55c0 0-20 24.562-20 42s16 21.312 16 59z"/></g></g></svg>